<svg width="152" height="130" viewBox="0 0 152 130" fill="none" xmlns="http://www.w3.org/2000/svg">
<rect x="52" y="116" width="47" height="8" fill="white"/>
<rect x="60" y="108" width="35" height="8" fill="white"/>
<path fill-rule="evenodd" clip-rule="evenodd" d="M10.983 25.5H24.983V37.5H48.983V25.5H66.983V37.5H68.983V52H96V58H104V74H119.017V84H126V94.9902H126.033V104.99H118.033V96H114V86H104V108H96H90H52V100H42V97H30V85.5H23.983V73.5H10.983V25.5Z" fill="#DFA46D"/>
<rect x="18.983" y="62.5" width="40" height="20" fill="white"/>
<rect x="18.983" y="65.5" width="40" height="17" fill="white"/>
<rect x="14.983" y="13.5" width="8" height="8" fill="#724D50"/>
<rect x="22.983" y="21.5" width="8" height="8" fill="#724D50"/>
<rect x="14.983" y="21.5" width="8" height="8" fill="white"/>
<rect x="6.98303" y="21.5" width="8" height="8" fill="#724D50"/>
<rect x="54.983" y="13.5" width="8" height="8" fill="#724D50"/>
<rect x="62.983" y="21.5" width="8" height="8" fill="#724D50"/>
<rect x="54.983" y="21.5" width="8" height="8" fill="white"/>
<rect x="62.983" y="29.5" width="8" height="8" fill="#724D50"/>
<rect x="6.98303" y="29.5" width="8" height="8" fill="#724D50"/>
<rect x="46.983" y="21.5" width="8" height="8" fill="#724D50"/>
<rect x="58.983" y="69.5" width="8" height="8" fill="#724D50"/>
<rect x="66.983" y="69.5" width="8" height="8" fill="#724D50"/>
<rect x="10.983" y="42.5" width="8" height="8" fill="#724D50"/>
<rect x="2.98303" y="37.5" width="8" height="8" fill="#724D50"/>
<rect x="66.983" y="45.5" width="8" height="8" fill="#724D50"/>
<rect x="2.98303" y="45.5" width="8" height="8" fill="#724D50"/>
<rect x="66.983" y="53.5" width="8" height="8" fill="#724D50"/>
<rect x="2.98303" y="53.5" width="8" height="8" fill="#724D50"/>
<rect x="66.983" y="61.5" width="8" height="8" fill="#724D50"/>
<rect x="80" y="44" width="8" height="8" fill="#724D50"/>
<rect x="72" y="44" width="8" height="8" fill="#724D50"/>
<rect x="88" y="44" width="8" height="8" fill="#724D50"/>
<rect x="96" y="52" width="8" height="8" fill="#724D50"/>
<rect x="104" y="60" width="8" height="8" fill="#724D50"/>
<rect x="24.983" y="82.5" width="28" height="8" fill="#724D50"/>
<rect x="52.983" y="77.5" width="8" height="8" fill="#724D50"/>
<rect x="104" y="68" width="8" height="8" fill="#724D50"/>
<rect x="112" y="68" width="8" height="8" fill="#724D50"/>
<rect x="126.033" y="96.9902" width="8" height="8" fill="#724D50"/>
<rect width="8" height="8" transform="matrix(1 0 0 -1 125.016 128.99)" fill="#724D50"/>
<rect width="8" height="8" transform="matrix(1 0 0 -1 133.016 128.99)" fill="#724D50"/>
<rect x="130" y="104.99" width="8" height="8" fill="#724D50"/>
<rect width="8" height="8" transform="matrix(1 0 0 -1 136.033 120.99)" fill="#724D50"/>
<rect x="117.016" y="112.99" width="8" height="8" fill="#724D50"/>
<rect x="112" y="68" width="10.456" height="8" fill="#724D50"/>
<rect x="119.016" y="76" width="10.456" height="8" fill="#724D50"/>
<rect x="134.033" y="76" width="20.9902" height="8" transform="rotate(90 134.033 76)" fill="#724D50"/>
<rect x="106" y="92" width="8" height="8" fill="#724D50"/>
<rect x="110" y="94.957" width="8" height="18.0331" fill="#724D50"/>
<rect x="86" y="104.248" width="8.99999" height="9.00017" transform="rotate(-180 86 104.248)" fill="#724D50"/>
<rect x="86" y="95.2476" width="8.99999" height="9.00017" transform="rotate(-180 86 95.2476)" fill="white"/>
<rect x="95" y="95.2478" width="8.99999" height="9.00017" transform="rotate(-180 95 95.2478)" fill="#724D50"/>
<rect x="95" y="104.248" width="8.99999" height="9.00017" transform="rotate(-180 95 104.248)" fill="#724D50"/>
<rect x="24" y="84" width="8" height="8" fill="#724D50"/>
<rect x="28" y="92" width="8" height="8" fill="#724D50"/>
<rect x="104" y="84" width="10" height="8" fill="#724D50"/>
<rect x="100" y="92" width="8" height="8" fill="#724D50"/>
<rect x="100" y="100" width="8" height="8" fill="#724D50"/>
<rect x="100" y="108" width="8" height="8" fill="#724D50"/>
<rect x="92" y="108" width="8" height="8" fill="#724D50"/>
<rect x="92" y="116" width="8" height="8" fill="#724D50"/>
<rect x="76" y="108" width="8" height="8" fill="#724D50"/>
<rect x="68" y="116" width="8" height="8" fill="#724D50"/>
<rect x="52" y="108" width="8" height="8" fill="#724D50"/>
<rect x="44" y="116" width="8" height="8" fill="#724D50"/>
<rect x="44" y="124" width="56" height="6" fill="#724D50"/>
<rect x="68" y="108" width="8" height="8" fill="#724D50"/>
<rect x="36" y="92" width="8" height="8" fill="#724D50"/>
<rect x="44" y="100" width="8" height="8" fill="#724D50"/>
<rect x="36" y="100" width="8" height="8" fill="#724D50"/>
<rect x="2.98303" y="61.5" width="8" height="8" fill="#724D50"/>
<rect x="7.98303" y="69.5" width="11" height="8" fill="#724D50"/>
<rect x="32.983" y="29.5" width="10" height="8" fill="#724D50"/>
<rect x="42.983" y="29.5" width="8" height="8" fill="#724D50"/>
<rect x="59.0431" y="42.5" width="8" height="8" fill="#724D50"/>
<rect x="66.983" y="37.5" width="8" height="8" fill="#724D50"/>
<rect x="50.983" y="50.5" width="8" height="4" fill="#724D50"/>
<rect x="58.983" y="50.5" width="8" height="4" fill="#724D50"/>
<rect x="10.983" y="50.5" width="8" height="4" fill="#724D50"/>
<rect x="18.983" y="50.5" width="8" height="4" fill="#724D50"/>
<rect x="26.983" y="62.5" width="8" height="8" fill="#724D50"/>
<rect x="42.983" y="62.5" width="8" height="8" fill="#724D50"/>
<rect x="34.983" y="59.5" width="8" height="8" fill="#724D50"/>
<rect x="24.983" y="29.5" width="8" height="8" fill="#724D50"/>
<rect x="16.983" y="77.5" width="8" height="8" fill="#724D50"/>
<rect x="20.9661" y="104.248" width="8.99999" height="9.00017" transform="rotate(-180 20.9661 104.248)" fill="#724D50"/>
<rect x="20.9661" y="95.2478" width="8.99999" height="9.00017" transform="rotate(-180 20.9661 95.2478)" fill="white"/>
<rect x="11.9661" y="104.248" width="8.99999" height="9.00017" transform="rotate(-180 11.9661 104.248)" fill="#724D50"/>
<rect x="11.9661" y="95.2476" width="8.99999" height="9.00017" transform="rotate(-180 11.9661 95.2476)" fill="#724D50"/>
<rect x="117.948" y="104.73" width="12.0853" height="8.26051" fill="white"/>
<rect x="125.016" y="112.99" width="11.0165" height="8.26051" fill="white"/>
</svg>
