<svg width="182" height="72" viewBox="0 0 182 72" fill="none" xmlns="http://www.w3.org/2000/svg">
<path fill-rule="evenodd" clip-rule="evenodd" d="M119 8H65V27H64V20H46V32H22V20H8V68H21V72H66V56H75V64H113H119H126V67H171V55H127V14H119V8Z" fill="#DFA46D"/>
<rect x="16" y="56" width="40" height="16" fill="white"/>
<path d="M163 55H166.5H174V67H159V55H163Z" fill="white"/>
<rect x="12" y="8" width="8" height="8" fill="#724D50"/>
<rect x="20" y="16" width="8" height="8" fill="#724D50"/>
<rect x="12" y="16" width="8" height="8" fill="white"/>
<rect x="4" y="16" width="8" height="8" fill="#724D50"/>
<rect x="52" y="8" width="8" height="8" fill="#724D50"/>
<rect x="60" y="8" width="8" height="8" fill="#724D50"/>
<rect x="60" y="16" width="8" height="8" fill="#724D50"/>
<rect x="52" y="16" width="8" height="8" fill="white"/>
<rect x="60" y="24" width="8" height="8" fill="#724D50"/>
<rect x="4" y="24" width="8" height="8" fill="#724D50"/>
<rect x="44" y="16" width="8" height="8" fill="#724D50"/>
<rect x="56" y="64" width="8" height="8" fill="#724D50"/>
<rect x="64" y="64" width="8" height="8" fill="#724D50"/>
<rect x="8" y="32" width="8" height="8" fill="#724D50"/>
<rect y="32" width="8" height="8" fill="#724D50"/>
<rect x="64" y="40" width="8" height="8" fill="#724D50"/>
<rect y="40" width="8" height="8" fill="#724D50"/>
<rect x="64" y="48" width="8" height="8" fill="#724D50"/>
<rect y="48" width="8" height="8" fill="#724D50"/>
<rect x="65" width="30" height="8" fill="#724D50"/>
<rect x="64" y="56" width="8" height="8" fill="#724D50"/>
<rect x="103" width="8" height="8" fill="#724D50"/>
<rect x="95" width="8" height="8" fill="#724D50"/>
<rect x="111" width="8" height="8" fill="#724D50"/>
<rect x="119" y="8" width="8" height="8" fill="#724D50"/>
<rect x="127" y="16" width="8" height="8" fill="#724D50"/>
<rect x="50" y="64" width="8" height="8" fill="#724D50"/>
<rect x="127" y="24" width="8" height="16" fill="#724D50"/>
<rect x="135" y="48" width="39" height="8" fill="#724D50"/>
<rect x="131" y="64" width="51" height="8" fill="#724D50"/>
<rect x="129" y="48" width="8" height="8" fill="#724D50"/>
<rect x="97.8889" y="64.7778" width="8.88889" height="8.88889" transform="rotate(-180 97.8889 64.7778)" fill="#724D50"/>
<rect x="97.8889" y="55.8889" width="8.88889" height="8.88889" transform="rotate(-180 97.8889 55.8889)" fill="#724D50"/>
<rect x="106.778" y="55.8889" width="8.88889" height="8.88889" transform="rotate(-180 106.778 55.8889)" fill="white"/>
<rect x="106.778" y="64.7778" width="8.88889" height="8.88889" transform="rotate(-180 106.778 64.7778)" fill="#724D50"/>
<rect x="127" y="40" width="13" height="8" fill="#724D50"/>
<rect x="123" y="48" width="8" height="8" fill="#724D50"/>
<rect x="123" y="64" width="8" height="8" fill="#724D50"/>
<rect x="115" y="64" width="8" height="8" fill="#724D50"/>
<rect x="115" y="64" width="8" height="8" fill="#724D50"/>
<rect x="99" y="64" width="8" height="8" fill="#724D50"/>
<rect x="91" y="64" width="8" height="8" fill="#724D50"/>
<rect x="75" y="64" width="8" height="8" fill="#724D50"/>
<rect x="67" y="64" width="8" height="8" fill="#724D50"/>
<rect x="67" y="64" width="56" height="8" fill="#724D50"/>
<rect x="91" y="64" width="8" height="8" fill="#724D50"/>
<rect x="67" y="56" width="8" height="8" fill="#724D50"/>
<rect y="56" width="8" height="8" fill="#724D50"/>
<rect x="5" y="64" width="11" height="8" fill="#724D50"/>
<rect x="30" y="24" width="10" height="8" fill="#724D50"/>
<rect x="40" y="24" width="8" height="8" fill="#724D50"/>
<rect x="56.0601" y="32" width="8" height="8" fill="#724D50"/>
<rect x="64" y="32" width="8" height="8" fill="#724D50"/>
<rect x="24" y="56" width="8" height="8" fill="#724D50"/>
<path d="M40 56H48V64H40V56Z" fill="#724D50"/>
<rect x="32" y="48" width="8" height="8" fill="#724D50"/>
<rect x="32" y="56" width="8" height="16" fill="#EA394B"/>
<rect x="22" y="24" width="8" height="8" fill="#724D50"/>
<path fill-rule="evenodd" clip-rule="evenodd" d="M38.9998 37.364L55.9998 54.364L62.3638 48L45.3638 31L38.9998 37.364Z" fill="black"/>
<path fill-rule="evenodd" clip-rule="evenodd" d="M6.99981 37.364L23.9998 54.364L30.3638 48L13.3638 31L6.99981 37.364Z" fill="black"/>
<path fill-rule="evenodd" clip-rule="evenodd" d="M63.0002 37.364L46.0002 54.364L39.6362 48L56.6362 31L63.0002 37.364Z" fill="black"/>
<path fill-rule="evenodd" clip-rule="evenodd" d="M31.0002 37.364L14.0002 54.364L7.63623 48L24.6362 31L31.0002 37.364Z" fill="black"/>
<rect x="174" y="48" width="8" height="19" fill="#724D50"/>
<rect x="22" y="64" width="10" height="8" fill="#724D50"/>
<rect x="40" y="64" width="11" height="8" fill="#724D50"/>
<rect x="15" y="64" width="8" height="8" fill="#724D50"/>
</svg>
