<svg width="152" height="130" viewBox="0 0 152 130" fill="none" xmlns="http://www.w3.org/2000/svg">
<rect x="52" y="116" width="47" height="8" fill="white"/>
<rect x="60" y="108" width="35" height="8" fill="white"/>
<path fill-rule="evenodd" clip-rule="evenodd" d="M8 12H22V24H46V12H64V24H66V52H96V58H104V74H120V64H128V59H136V69H132V76H128V86H104V108H96H90H52V100H42V97H30V72H21V64H12V60H8V12Z" fill="#DFA46D"/>
<rect x="16" y="48" width="40" height="21" fill="white"/>
<rect x="16" y="48" width="40" height="21" fill="white"/>
<path d="M128 60L131.5 54H139V76H124V65L128 60Z" fill="white"/>
<rect x="12" width="8" height="8" fill="#724D50"/>
<rect x="20" y="8" width="8" height="8" fill="#724D50"/>
<rect x="12" y="8" width="8" height="8" fill="white"/>
<rect x="4" y="8" width="8" height="8" fill="#724D50"/>
<rect x="52" width="8" height="8" fill="#724D50"/>
<rect x="60" y="8" width="8" height="8" fill="#724D50"/>
<rect x="52" y="8" width="8" height="8" fill="white"/>
<rect x="60" y="16" width="8" height="8" fill="#724D50"/>
<rect x="4" y="16" width="8" height="8" fill="#724D50"/>
<rect x="44" y="8" width="8" height="8" fill="#724D50"/>
<rect x="56" y="56" width="8" height="8" fill="#724D50"/>
<rect x="64" y="56" width="8" height="8" fill="#724D50"/>
<rect x="8" y="24" width="8" height="8" fill="#724D50"/>
<rect y="24" width="8" height="8" fill="#724D50"/>
<rect x="64" y="32" width="8" height="8" fill="#724D50"/>
<rect y="32" width="8" height="8" fill="#724D50"/>
<rect x="64" y="40" width="8" height="8" fill="#724D50"/>
<rect y="40" width="8" height="8" fill="#724D50"/>
<rect y="48" width="8" height="8" fill="#724D50"/>
<rect x="64" y="48" width="8" height="8" fill="#724D50"/>
<rect x="64" y="48" width="8" height="8" fill="#724D50"/>
<rect x="80" y="44" width="8" height="8" fill="#724D50"/>
<rect x="72" y="44" width="8" height="8" fill="#724D50"/>
<rect x="88" y="44" width="8" height="8" fill="#724D50"/>
<rect x="96" y="52" width="8" height="8" fill="#724D50"/>
<rect x="104" y="60" width="8" height="8" fill="#724D50"/>
<rect x="21" y="69" width="8" height="8" fill="#724D50"/>
<rect x="29" y="69" width="8" height="8" fill="#724D50"/>
<rect x="52" y="64" width="8" height="8" fill="#724D50"/>
<rect x="104" y="68" width="8" height="8" fill="#724D50"/>
<rect x="112" y="68" width="8" height="8" fill="#724D50"/>
<rect x="120" y="60" width="8" height="8" fill="#724D50"/>
<rect x="128" y="52" width="8" height="8" fill="#724D50"/>
<rect x="136" y="52" width="8" height="8" fill="#724D50"/>
<rect x="132" y="68" width="8" height="8" fill="#724D50"/>
<rect x="136" y="60" width="8" height="8" fill="#724D50"/>
<rect x="124" y="76" width="8" height="8" fill="#724D50"/>
<rect x="112" y="84" width="16" height="8" fill="#724D50"/>
<rect x="106" y="92" width="8" height="8" fill="#724D50"/>
<rect width="8.88889" height="8.88889" transform="matrix(1 -8.74228e-08 -8.74228e-08 -1 61.1111 94)" fill="#724D50"/>
<rect width="8.88889" height="8.88889" transform="matrix(1 -8.74228e-08 -8.74228e-08 -1 61.1111 85.1111)" fill="#724D50"/>
<rect width="8.88889" height="8.88889" transform="matrix(1 -8.74228e-08 -8.74228e-08 -1 52.2222 85.1111)" fill="white"/>
<rect width="8.88889" height="8.88889" transform="matrix(1 -8.74228e-08 -8.74228e-08 -1 52.2222 94)" fill="#724D50"/>
<rect x="17.7778" y="93.7778" width="8.88889" height="8.88889" transform="rotate(-180 17.7778 93.7778)" fill="#724D50"/>
<rect x="17.7778" y="84.8889" width="8.88889" height="8.88889" transform="rotate(-180 17.7778 84.8889)" fill="white"/>
<rect x="8.88892" y="93.7778" width="8.88889" height="8.88889" transform="rotate(-180 8.88892 93.7778)" fill="#724D50"/>
<rect x="8.88892" y="84.8889" width="8.88889" height="8.88889" transform="rotate(-180 8.88892 84.8889)" fill="#724D50"/>
<rect x="24" y="71" width="8" height="13" fill="#724D50"/>
<rect x="24" y="84" width="8" height="8" fill="#724D50"/>
<rect x="28" y="92" width="8" height="8" fill="#724D50"/>
<rect x="104" y="84" width="10" height="8" fill="#724D50"/>
<rect x="100" y="92" width="8" height="8" fill="#724D50"/>
<rect x="100" y="100" width="8" height="8" fill="#724D50"/>
<rect x="100" y="108" width="8" height="8" fill="#724D50"/>
<rect x="92" y="108" width="8" height="8" fill="#724D50"/>
<rect x="92" y="116" width="8" height="8" fill="#724D50"/>
<rect x="76" y="108" width="8" height="8" fill="#724D50"/>
<rect x="68" y="116" width="8" height="8" fill="#724D50"/>
<rect x="52" y="108" width="8" height="8" fill="#724D50"/>
<rect x="44" y="116" width="8" height="8" fill="#724D50"/>
<rect x="44" y="124" width="56" height="6" fill="#724D50"/>
<rect x="68" y="108" width="8" height="8" fill="#724D50"/>
<rect x="36" y="92" width="8" height="8" fill="#724D50"/>
<rect x="44" y="100" width="8" height="8" fill="#724D50"/>
<rect x="36" y="100" width="8" height="8" fill="#724D50"/>
<rect y="48" width="8" height="8" fill="#724D50"/>
<rect x="5" y="56" width="11" height="8" fill="#724D50"/>
<rect x="30" y="16" width="10" height="8" fill="#724D50"/>
<rect x="40" y="16" width="8" height="8" fill="#724D50"/>
<rect x="56.0601" y="24" width="8" height="8" fill="#724D50"/>
<rect x="64" y="24" width="8" height="8" fill="#724D50"/>
<rect x="48" y="32" width="8" height="8" fill="#724D50"/>
<rect x="56" y="32" width="8" height="8" fill="#724D50"/>
<rect x="8" y="32" width="8" height="8" fill="#724D50"/>
<rect x="16" y="32" width="8" height="8" fill="#724D50"/>
<rect x="24" y="48" width="8" height="8" fill="#724D50"/>
<rect x="40" y="48" width="8" height="8" fill="#724D50"/>
<rect x="32" y="40" width="8" height="8" fill="#724D50"/>
<rect x="22" y="16" width="8" height="8" fill="#724D50"/>
<rect x="12" y="64" width="8" height="8" fill="#724D50"/>
<rect x="36.4624" y="72.7681" width="2.92501" height="10.2375" transform="rotate(-90 36.4624 72.7681)" fill="black"/>
<rect x="46.7003" y="75.6937" width="2.92501" height="2.92501" transform="rotate(-90 46.7003 75.6937)" fill="black"/>
<rect x="46.7003" y="93.2444" width="2.92501" height="2.92501" transform="rotate(-90 46.7003 93.2444)" fill="black"/>
<rect x="43.775" y="96.1687" width="2.92501" height="2.92501" transform="rotate(-90 43.775 96.1687)" fill="black"/>
<rect x="32.0747" y="96.1687" width="2.92501" height="5.85002" transform="rotate(-90 32.0747 96.1687)" fill="black"/>
<rect x="37.9253" y="99.0934" width="2.92501" height="5.85002" transform="rotate(-90 37.9253 99.0934)" fill="black"/>
<rect x="20.3752" y="75.6937" width="2.92501" height="2.92501" transform="rotate(-90 20.3752 75.6937)" fill="black"/>
<rect x="20.3752" y="93.2444" width="2.92501" height="2.92501" transform="rotate(-90 20.3752 93.2444)" fill="black"/>
<rect x="23.2997" y="96.1687" width="2.92501" height="2.92501" transform="rotate(-90 23.2997 96.1687)" fill="black"/>
<rect x="26.225" y="99.0934" width="2.92501" height="5.85002" transform="rotate(-90 26.225 99.0934)" fill="black"/>
<rect x="17.45" y="90.3181" width="14.625" height="2.92501" transform="rotate(-90 17.45 90.3181)" fill="black"/>
<rect x="49.6248" y="90.3181" width="14.625" height="2.92501" transform="rotate(-90 49.6248 90.3181)" fill="black"/>
<rect x="23.2997" y="72.7681" width="2.92501" height="10.2375" transform="rotate(-90 23.2997 72.7681)" fill="black"/>
<rect x="46.7004" y="56.681" width="2.92501" height="5.85002" fill="black"/>
<rect x="39.3875" y="59.6051" width="2.92501" height="7.31252" transform="rotate(-90 39.3875 59.6051)" fill="black"/>
<rect x="36.4624" y="62.5314" width="2.92501" height="2.92501" transform="rotate(-90 36.4624 62.5314)" fill="black"/>
<rect x="33.5377" y="74.231" width="11.7" height="2.92501" transform="rotate(-90 33.5377 74.231)" fill="black"/>
<rect x="43.7751" y="65.4557" width="2.92501" height="2.92501" transform="rotate(-90 43.7751 65.4557)" fill="black"/>
<rect x="36.4624" y="68.3804" width="2.92501" height="7.31252" transform="rotate(-90 36.4624 68.3804)" fill="black"/>
<rect x="36.4624" y="65.4557" width="2.92501" height="7.31252" transform="rotate(-90 36.4624 65.4557)" fill="#BFE449"/>
<rect x="39.3875" y="62.5314" width="2.92501" height="7.31252" transform="rotate(-90 39.3875 62.5314)" fill="#BFE449"/>
<rect x="36.4624" y="72.7681" width="10.2375" height="20.4751" fill="#EA394B"/>
<rect x="23.2997" y="72.7681" width="10.2375" height="20.4751" fill="#EA394B"/>
<rect x="26.225" y="93.2444" width="5.85002" height="2.92501" fill="#EA394B"/>
<rect x="32.0747" y="90.3181" width="5.85002" height="2.92501" fill="#EA394B"/>
<rect x="37.9253" y="93.2444" width="5.85002" height="2.92501" fill="#EA394B"/>
<rect x="49.6248" y="75.6937" width="14.6251" height="29.2501" transform="rotate(90 49.6248 75.6937)" fill="#EA394B"/>
<rect x="33.538" y="77.1554" width="2.92501" height="2.92501" transform="rotate(-90 33.538 77.1554)" fill="black"/>
<rect x="36.4624" y="75.6937" width="2.92501" height="2.92501" transform="rotate(-90 36.4624 75.6937)" fill="black"/>
<rect x="30.6127" y="75.6937" width="2.92501" height="2.92501" transform="rotate(-90 30.6127 75.6937)" fill="black"/>
</svg>
