<svg width="200" height="144" viewBox="0 0 200 144" fill="none" xmlns="http://www.w3.org/2000/svg">
<rect x="108" y="130" width="47" height="8" fill="white"/>
<rect x="116" y="122" width="35" height="8" fill="white"/>
<path fill-rule="evenodd" clip-rule="evenodd" d="M64 26H78V38H102V26H120V38H122V66H152V72H160V88H176V78H184V73H192V83H188V90H184V100H160V122H152H146H108V114H98V111H86V86H77V78H68V74H64V26Z" fill="#DFA46D"/>
<rect x="72" y="62" width="40" height="21" fill="white"/>
<rect x="72" y="62" width="40" height="21" fill="white"/>
<path d="M184 74L187.5 68H195V90H180V79L184 74Z" fill="white"/>
<rect x="68" y="14" width="8" height="8" fill="#724D50"/>
<rect x="76" y="22" width="8" height="8" fill="#724D50"/>
<rect x="68" y="22" width="8" height="8" fill="white"/>
<rect x="60" y="22" width="8" height="8" fill="#724D50"/>
<rect x="108" y="14" width="8" height="8" fill="#724D50"/>
<rect x="116" y="22" width="8" height="8" fill="#724D50"/>
<rect x="108" y="22" width="8" height="8" fill="white"/>
<rect x="116" y="30" width="8" height="8" fill="#724D50"/>
<rect x="60" y="30" width="8" height="8" fill="#724D50"/>
<rect x="100" y="22" width="8" height="8" fill="#724D50"/>
<rect x="112" y="70" width="8" height="8" fill="#724D50"/>
<rect x="120" y="70" width="8" height="8" fill="#724D50"/>
<rect x="64" y="38" width="8" height="8" fill="#724D50"/>
<rect x="56" y="38" width="8" height="8" fill="#724D50"/>
<rect x="120" y="46" width="8" height="8" fill="#724D50"/>
<rect x="56" y="46" width="8" height="8" fill="#724D50"/>
<rect x="120" y="54" width="8" height="8" fill="#724D50"/>
<rect x="56" y="54" width="8" height="8" fill="#724D50"/>
<rect x="56" y="62" width="8" height="8" fill="#724D50"/>
<rect x="120" y="62" width="8" height="8" fill="#724D50"/>
<rect x="120" y="62" width="8" height="8" fill="#724D50"/>
<rect x="136" y="58" width="8" height="8" fill="#724D50"/>
<rect x="128" y="58" width="8" height="8" fill="#724D50"/>
<rect x="144" y="58" width="8" height="8" fill="#724D50"/>
<rect x="152" y="66" width="8" height="8" fill="#724D50"/>
<rect x="160" y="74" width="8" height="8" fill="#724D50"/>
<rect x="76" y="83" width="8" height="8" fill="#724D50"/>
<rect x="84" y="83" width="8" height="8" fill="#724D50"/>
<rect x="108" y="78" width="8" height="8" fill="#724D50"/>
<rect x="160" y="82" width="8" height="8" fill="#724D50"/>
<rect x="168" y="82" width="8" height="8" fill="#724D50"/>
<rect x="176" y="74" width="8" height="8" fill="#724D50"/>
<rect x="184" y="66" width="8" height="8" fill="#724D50"/>
<rect x="192" y="66" width="8" height="8" fill="#724D50"/>
<rect x="188" y="82" width="8" height="8" fill="#724D50"/>
<rect x="192" y="74" width="8" height="8" fill="#724D50"/>
<rect x="180" y="90" width="8" height="8" fill="#724D50"/>
<rect x="168" y="98" width="16" height="8" fill="#724D50"/>
<rect x="162" y="106" width="8" height="8" fill="#724D50"/>
<rect x="143.889" y="45.7778" width="8.88889" height="8.88889" transform="rotate(-180 143.889 45.7778)" fill="#724D50"/>
<rect x="143.889" y="36.8889" width="8.88889" height="8.88889" transform="rotate(-180 143.889 36.8889)" fill="#724D50"/>
<rect x="152.778" y="36.8889" width="8.88889" height="8.88889" transform="rotate(-180 152.778 36.8889)" fill="white"/>
<rect x="152.778" y="45.7778" width="8.88889" height="8.88889" transform="rotate(-180 152.778 45.7778)" fill="#724D50"/>
<rect x="80" y="85" width="8" height="13" fill="#724D50"/>
<rect x="80" y="98" width="8" height="8" fill="#724D50"/>
<rect x="84" y="106" width="8" height="8" fill="#724D50"/>
<rect x="160" y="98" width="10" height="8" fill="#724D50"/>
<rect x="156" y="106" width="8" height="8" fill="#724D50"/>
<rect x="156" y="114" width="8" height="8" fill="#724D50"/>
<rect x="156" y="122" width="8" height="8" fill="#724D50"/>
<rect x="148" y="122" width="8" height="8" fill="#724D50"/>
<rect x="148" y="130" width="8" height="8" fill="#724D50"/>
<rect x="132" y="122" width="8" height="8" fill="#724D50"/>
<rect x="124" y="130" width="8" height="8" fill="#724D50"/>
<rect x="108" y="122" width="8" height="8" fill="#724D50"/>
<rect x="100" y="130" width="8" height="8" fill="#724D50"/>
<rect x="100" y="138" width="56" height="6" fill="#724D50"/>
<rect x="124" y="122" width="8" height="8" fill="#724D50"/>
<rect x="92" y="106" width="8" height="8" fill="#724D50"/>
<rect x="100" y="114" width="8" height="8" fill="#724D50"/>
<rect x="92" y="114" width="8" height="8" fill="#724D50"/>
<rect x="56" y="62" width="8" height="8" fill="#724D50"/>
<rect x="61" y="70" width="11" height="8" fill="#724D50"/>
<rect x="86" y="30" width="10" height="8" fill="#724D50"/>
<rect x="96" y="30" width="8" height="8" fill="#724D50"/>
<rect x="112.06" y="38" width="8" height="8" fill="#724D50"/>
<rect x="120" y="38" width="8" height="8" fill="#724D50"/>
<rect x="104" y="46" width="8" height="8" fill="#724D50"/>
<rect x="112" y="46" width="8" height="8" fill="#724D50"/>
<rect x="64" y="46" width="8" height="8" fill="#724D50"/>
<rect x="72" y="46" width="8" height="8" fill="#724D50"/>
<rect x="80" y="62" width="8" height="8" fill="#724D50"/>
<rect x="96" y="62" width="8" height="8" fill="#724D50"/>
<rect x="88" y="54" width="8" height="8" fill="#724D50"/>
<rect x="78" y="30" width="8" height="8" fill="#724D50"/>
<rect x="68" y="78" width="8" height="8" fill="#724D50"/>
<rect x="22.4" y="45.4" width="11.2" height="12.6" fill="black"/>
<rect x="26.6" y="37" width="2.8" height="8.4" fill="black"/>
<rect x="22.4" y="34.2" width="11.2" height="5.6" fill="black"/>
<rect x="19.6" y="46.8" width="16.8" height="8.4" fill="black"/>
<rect x="18.2" y="46.8" width="18.2" height="1.4" fill="black"/>
<rect x="18.2" y="35.6" width="18.2" height="7" fill="black"/>
<rect x="15.4" y="38.4" width="2.8" height="1.4" fill="black"/>
<rect x="36.4" y="38.4" width="4.2" height="1.4" fill="black"/>
<rect x="36.4" y="44" width="4.2" height="2.8" fill="black"/>
<rect x="15.4" y="44" width="2.8" height="2.8" fill="black"/>
<rect x="19.6" y="58" width="2.8" height="2.8" fill="black"/>
<rect x="33.6" y="58" width="2.8" height="2.8" fill="black"/>
<rect x="22.4" y="67.8" width="11.2" height="2.8" fill="black"/>
<rect x="33.6" y="63.6" width="2.8" height="4.2" fill="black"/>
<rect x="35" y="60.8" width="4.2" height="4.2" fill="black"/>
<rect x="37.8" y="59.4" width="2.8" height="4.2" fill="black"/>
<rect x="15.4" y="59.4" width="2.8" height="4.2" fill="black"/>
<rect x="12.6" y="55.2" width="4.2" height="7" fill="black"/>
<rect x="9.80005" y="46.8" width="2.8" height="9.8" fill="black"/>
<rect x="12.6" y="42.6" width="29.4" height="8.4" fill="black"/>
<rect x="15.4" y="39.8" width="1.4" height="8.4" fill="black"/>
<rect x="37.8" y="55.2" width="5.6" height="7" fill="black"/>
<rect x="43.4" y="46.8" width="2.8" height="9.8" fill="black"/>
<rect x="40.6" y="42.6" width="2.8" height="8.4" fill="black"/>
<rect x="39.2" y="39.8" width="1.4" height="8.4" fill="black"/>
<rect x="16.8" y="60.8" width="4.2" height="4.2" fill="black"/>
<rect x="18.2" y="63.6" width="4.2" height="4.2" fill="black"/>
<rect x="19.4349" y="37.4122" width="4.28235" height="8.56471" fill="white"/>
<rect x="16.2234" y="39.5532" width="10.7059" height="5.35294" fill="white"/>
<rect x="19.4349" y="40.624" width="7.49412" height="5.35294" fill="white"/>
<rect x="19.4349" y="45.9764" width="3.21176" height="1.07059" fill="white"/>
<rect width="4.28235" height="8.56471" transform="matrix(-1 0 0 1 36.5651 37.4122)" fill="white"/>
<rect width="10.7059" height="5.35294" transform="matrix(-1 0 0 1 39.7766 39.5532)" fill="white"/>
<rect width="7.49412" height="5.35294" transform="matrix(-1 0 0 1 36.5651 40.624)" fill="white"/>
<rect width="3.21176" height="1.07059" transform="matrix(-1 0 0 1 36.5651 45.9764)" fill="white"/>
<rect x="16.2233" y="47.0468" width="3.21176" height="11.7765" fill="white"/>
<rect x="13.7" y="49.7998" width="6.5" height="7.8" fill="white"/>
<rect x="17.6" y="54.9998" width="2.6" height="5.2" fill="white"/>
<rect x="18.3646" y="54.5409" width="4.28235" height="3.21176" fill="white"/>
<rect x="11.941" y="51.329" width="4.28235" height="4.28235" fill="white"/>
<rect width="3.21176" height="11.7765" transform="matrix(-1 0 0 1 39.7767 47.0468)" fill="white"/>
<rect width="6.5" height="7.8" transform="matrix(-1 0 0 1 42.3 49.7998)" fill="white"/>
<rect width="2.6" height="5.2" transform="matrix(-1 0 0 1 38.4 54.9998)" fill="white"/>
<rect width="4.28235" height="3.21176" transform="matrix(-1 0 0 1 37.6354 54.5409)" fill="white"/>
<rect width="4.28235" height="4.28235" transform="matrix(-1 0 0 1 44.059 51.329)" fill="white"/>
<rect x="22.4" y="58" width="11.2" height="9.8" fill="white"/>
<rect x="21" y="60.8" width="14" height="2.8" fill="white"/>
<rect x="69.7778" y="106.778" width="8.88889" height="8.88889" transform="rotate(-180 69.7778 106.778)" fill="#724D50"/>
<rect x="69.7778" y="97.8889" width="8.88889" height="8.88889" transform="rotate(-180 69.7778 97.8889)" fill="white"/>
<rect x="60.8889" y="106.778" width="8.88889" height="8.88889" transform="rotate(-180 60.8889 106.778)" fill="#724D50"/>
<rect x="60.8889" y="97.8889" width="8.88889" height="8.88889" transform="rotate(-180 60.8889 97.8889)" fill="#724D50"/>
</svg>
