<svg width="200" height="144" viewBox="0 0 200 144" fill="none" xmlns="http://www.w3.org/2000/svg">
<rect x="108" y="130" width="47" height="8" fill="white"/>
<rect x="116" y="122" width="35" height="8" fill="white"/>
<path fill-rule="evenodd" clip-rule="evenodd" d="M64 26H78V38H102V26H120V38H122V66H152V72H160V88H176V78H184V73H192V83H188V90H184V100H160V122H152H146H108V114H98V111H86V86H77V78H68V74H64V26Z" fill="#DFA46D"/>
<rect x="72" y="62" width="40" height="21" fill="white"/>
<rect x="72" y="62" width="40" height="21" fill="white"/>
<path d="M184 74L187.5 68H195V90H180V79L184 74Z" fill="white"/>
<rect x="68" y="14" width="8" height="8" fill="#724D50"/>
<rect x="76" y="22" width="8" height="8" fill="#724D50"/>
<rect x="68" y="22" width="8" height="8" fill="white"/>
<rect x="60" y="22" width="8" height="8" fill="#724D50"/>
<rect x="108" y="14" width="8" height="8" fill="#724D50"/>
<rect x="116" y="22" width="8" height="8" fill="#724D50"/>
<rect x="108" y="22" width="8" height="8" fill="white"/>
<rect x="116" y="30" width="8" height="8" fill="#724D50"/>
<rect x="60" y="30" width="8" height="8" fill="#724D50"/>
<rect x="100" y="22" width="8" height="8" fill="#724D50"/>
<rect x="112" y="70" width="8" height="8" fill="#724D50"/>
<rect x="120" y="70" width="8" height="8" fill="#724D50"/>
<rect x="64" y="38" width="8" height="8" fill="#724D50"/>
<rect x="56" y="38" width="8" height="8" fill="#724D50"/>
<rect x="120" y="46" width="8" height="8" fill="#724D50"/>
<rect x="56" y="46" width="8" height="8" fill="#724D50"/>
<rect x="120" y="54" width="8" height="8" fill="#724D50"/>
<rect x="56" y="54" width="8" height="8" fill="#724D50"/>
<rect x="56" y="62" width="8" height="8" fill="#724D50"/>
<rect x="120" y="62" width="8" height="8" fill="#724D50"/>
<rect x="120" y="62" width="8" height="8" fill="#724D50"/>
<rect x="136" y="58" width="8" height="8" fill="#724D50"/>
<rect x="128" y="58" width="8" height="8" fill="#724D50"/>
<rect x="144" y="58" width="8" height="8" fill="#724D50"/>
<rect x="152" y="66" width="8" height="8" fill="#724D50"/>
<rect x="160" y="74" width="8" height="8" fill="#724D50"/>
<rect x="76" y="83" width="8" height="8" fill="#724D50"/>
<rect x="84" y="83" width="8" height="8" fill="#724D50"/>
<rect x="108" y="78" width="8" height="8" fill="#724D50"/>
<rect x="160" y="82" width="8" height="8" fill="#724D50"/>
<rect x="168" y="82" width="8" height="8" fill="#724D50"/>
<rect x="176" y="74" width="8" height="8" fill="#724D50"/>
<rect x="184" y="66" width="8" height="8" fill="#724D50"/>
<rect x="192" y="66" width="8" height="8" fill="#724D50"/>
<rect x="188" y="82" width="8" height="8" fill="#724D50"/>
<rect x="192" y="74" width="8" height="8" fill="#724D50"/>
<rect x="180" y="90" width="8" height="8" fill="#724D50"/>
<rect x="168" y="98" width="16" height="8" fill="#724D50"/>
<rect x="162" y="106" width="8" height="8" fill="#724D50"/>
<rect x="140.889" y="94.7778" width="8.88889" height="8.88889" transform="rotate(-180 140.889 94.7778)" fill="#724D50"/>
<rect x="140.889" y="85.8889" width="8.88889" height="8.88889" transform="rotate(-180 140.889 85.8889)" fill="#724D50"/>
<rect x="149.778" y="85.8889" width="8.88889" height="8.88889" transform="rotate(-180 149.778 85.8889)" fill="white"/>
<rect x="149.778" y="94.7778" width="8.88889" height="8.88889" transform="rotate(-180 149.778 94.7778)" fill="#724D50"/>
<rect x="80" y="85" width="8" height="13" fill="#724D50"/>
<rect x="80" y="98" width="8" height="8" fill="#724D50"/>
<rect x="84" y="106" width="8" height="8" fill="#724D50"/>
<rect x="160" y="98" width="10" height="8" fill="#724D50"/>
<rect x="156" y="106" width="8" height="8" fill="#724D50"/>
<rect x="156" y="114" width="8" height="8" fill="#724D50"/>
<rect x="156" y="122" width="8" height="8" fill="#724D50"/>
<rect x="148" y="122" width="8" height="8" fill="#724D50"/>
<rect x="148" y="130" width="8" height="8" fill="#724D50"/>
<rect x="132" y="122" width="8" height="8" fill="#724D50"/>
<rect x="124" y="130" width="8" height="8" fill="#724D50"/>
<rect x="108" y="122" width="8" height="8" fill="#724D50"/>
<rect x="100" y="130" width="8" height="8" fill="#724D50"/>
<rect x="100" y="138" width="56" height="6" fill="#724D50"/>
<rect x="124" y="122" width="8" height="8" fill="#724D50"/>
<rect x="92" y="106" width="8" height="8" fill="#724D50"/>
<rect x="100" y="114" width="8" height="8" fill="#724D50"/>
<rect x="92" y="114" width="8" height="8" fill="#724D50"/>
<rect x="56" y="62" width="8" height="8" fill="#724D50"/>
<rect x="61" y="70" width="11" height="8" fill="#724D50"/>
<rect x="86" y="30" width="10" height="8" fill="#724D50"/>
<rect x="96" y="30" width="8" height="8" fill="#724D50"/>
<rect x="112.06" y="38" width="8" height="8" fill="#724D50"/>
<rect x="120" y="38" width="8" height="8" fill="#724D50"/>
<rect x="104" y="46" width="8" height="8" fill="#724D50"/>
<rect x="112" y="46" width="8" height="8" fill="#724D50"/>
<rect x="64" y="46" width="8" height="8" fill="#724D50"/>
<rect x="72" y="46" width="8" height="8" fill="#724D50"/>
<rect x="80" y="62" width="8" height="8" fill="#724D50"/>
<rect x="96" y="62" width="8" height="8" fill="#724D50"/>
<rect x="88" y="54" width="8" height="8" fill="#724D50"/>
<rect x="78" y="30" width="8" height="8" fill="#724D50"/>
<rect x="68" y="78" width="8" height="8" fill="#724D50"/>
<rect x="150.4" y="22.4" width="11.2" height="12.6" fill="black"/>
<rect x="154.6" y="14" width="2.8" height="8.4" fill="black"/>
<rect x="150.4" y="11.2" width="11.2" height="5.6" fill="black"/>
<rect x="147.6" y="23.8" width="16.8" height="8.4" fill="black"/>
<rect x="146.2" y="23.8" width="18.2" height="1.4" fill="black"/>
<rect x="146.2" y="12.6" width="18.2" height="7" fill="black"/>
<rect x="143.4" y="15.4" width="2.8" height="1.4" fill="black"/>
<rect x="164.4" y="15.4" width="4.2" height="1.4" fill="black"/>
<rect x="164.4" y="21" width="4.2" height="2.8" fill="black"/>
<rect x="143.4" y="21" width="2.8" height="2.8" fill="black"/>
<rect x="147.6" y="35" width="2.8" height="2.8" fill="black"/>
<rect x="161.6" y="35" width="2.8" height="2.8" fill="black"/>
<rect x="150.4" y="44.8" width="11.2" height="2.8" fill="black"/>
<rect x="161.6" y="40.6" width="2.8" height="4.2" fill="black"/>
<rect x="163" y="37.8" width="4.2" height="4.2" fill="black"/>
<rect x="165.8" y="36.4" width="2.8" height="4.2" fill="black"/>
<rect x="143.4" y="36.4" width="2.8" height="4.2" fill="black"/>
<rect x="140.6" y="32.2" width="4.2" height="7" fill="black"/>
<rect x="137.8" y="23.8" width="2.8" height="9.8" fill="black"/>
<rect x="140.6" y="19.6" width="29.4" height="8.4" fill="black"/>
<rect x="143.4" y="16.8" width="1.4" height="8.4" fill="black"/>
<rect x="165.8" y="32.2" width="5.6" height="7" fill="black"/>
<rect x="171.4" y="23.8" width="2.8" height="9.8" fill="black"/>
<rect x="168.6" y="19.6" width="2.8" height="8.4" fill="black"/>
<rect x="167.2" y="16.8" width="1.4" height="8.4" fill="black"/>
<rect x="144.8" y="37.8" width="4.2" height="4.2" fill="black"/>
<rect x="146.2" y="40.6" width="4.2" height="4.2" fill="black"/>
<rect x="147.435" y="14.4122" width="4.28235" height="8.56471" fill="white"/>
<rect x="144.223" y="16.5532" width="10.7059" height="5.35294" fill="white"/>
<rect x="147.435" y="17.624" width="7.49412" height="5.35294" fill="white"/>
<rect x="147.435" y="22.9764" width="3.21176" height="1.07059" fill="white"/>
<rect width="4.28235" height="8.56471" transform="matrix(-1 0 0 1 164.565 14.4122)" fill="white"/>
<rect width="10.7059" height="5.35294" transform="matrix(-1 0 0 1 167.777 16.5532)" fill="white"/>
<rect width="7.49412" height="5.35294" transform="matrix(-1 0 0 1 164.565 17.624)" fill="white"/>
<rect width="3.21176" height="1.07059" transform="matrix(-1 0 0 1 164.565 22.9764)" fill="white"/>
<rect x="144.223" y="24.0468" width="3.21176" height="11.7765" fill="white"/>
<rect x="141.7" y="26.7998" width="6.5" height="7.8" fill="white"/>
<rect x="145.6" y="31.9998" width="2.6" height="5.2" fill="white"/>
<rect x="146.365" y="31.5409" width="4.28235" height="3.21176" fill="white"/>
<rect x="139.941" y="28.329" width="4.28235" height="4.28235" fill="white"/>
<rect width="3.21176" height="11.7765" transform="matrix(-1 0 0 1 167.777 24.0468)" fill="white"/>
<rect width="6.5" height="7.8" transform="matrix(-1 0 0 1 170.3 26.7998)" fill="white"/>
<rect width="2.6" height="5.2" transform="matrix(-1 0 0 1 166.4 31.9998)" fill="white"/>
<rect width="4.28235" height="3.21176" transform="matrix(-1 0 0 1 165.635 31.5409)" fill="white"/>
<rect width="4.28235" height="4.28235" transform="matrix(-1 0 0 1 172.059 28.329)" fill="white"/>
<rect x="150.4" y="35" width="11.2" height="9.8" fill="white"/>
<rect x="149" y="37.8" width="14" height="2.8" fill="white"/>
<rect x="49.7778" y="86.7778" width="8.88889" height="8.88889" transform="rotate(-180 49.7778 86.7778)" fill="#724D50"/>
<rect x="49.7778" y="77.8889" width="8.88889" height="8.88889" transform="rotate(-180 49.7778 77.8889)" fill="white"/>
<rect x="40.8889" y="86.7778" width="8.88889" height="8.88889" transform="rotate(-180 40.8889 86.7778)" fill="#724D50"/>
<rect x="40.8889" y="77.8889" width="8.88889" height="8.88889" transform="rotate(-180 40.8889 77.8889)" fill="#724D50"/>
</svg>
