<svg width="152" height="130" viewBox="0 0 152 130" fill="none" xmlns="http://www.w3.org/2000/svg">
<rect x="52" y="124" width="47" height="6" fill="white"/>
<rect x="60" y="116" width="35" height="8" fill="white"/>
<path fill-rule="evenodd" clip-rule="evenodd" d="M8 20H22V32H46V20H64V32H66V60H96V66H104V82H120V72H128V67H136V77H132V84H128V94H104V116H96H90H52V108H42V105H30V80H21V72H12V68H8V20Z" fill="#DFA46D"/>
<rect x="16" y="56" width="40" height="21" fill="white"/>
<path d="M128 68L131.5 62H139V84H124V73L128 68Z" fill="white"/>
<rect x="12" y="8" width="8" height="8" fill="#724D50"/>
<rect x="20" y="16" width="8" height="8" fill="#724D50"/>
<rect x="12" y="16" width="8" height="8" fill="white"/>
<rect x="4" y="16" width="8" height="8" fill="#724D50"/>
<rect x="52" y="8" width="8" height="8" fill="#724D50"/>
<rect x="60" y="16" width="8" height="8" fill="#724D50"/>
<rect x="52" y="16" width="8" height="8" fill="white"/>
<rect x="60" y="24" width="8" height="8" fill="#724D50"/>
<rect x="4" y="24" width="8" height="8" fill="#724D50"/>
<rect x="44" y="16" width="8" height="8" fill="#724D50"/>
<rect x="56" y="64" width="8" height="8" fill="#724D50"/>
<rect x="64" y="64" width="8" height="8" fill="#724D50"/>
<rect x="8" y="32" width="8" height="8" fill="#724D50"/>
<rect y="32" width="8" height="8" fill="#724D50"/>
<rect x="64" y="40" width="8" height="8" fill="#724D50"/>
<rect y="40" width="8" height="8" fill="#724D50"/>
<rect x="64" y="48" width="8" height="8" fill="#724D50"/>
<rect y="48" width="8" height="8" fill="#724D50"/>
<rect y="56" width="8" height="8" fill="#724D50"/>
<rect x="64" y="56" width="8" height="8" fill="#724D50"/>
<rect x="64" y="56" width="8" height="8" fill="#724D50"/>
<rect x="80" y="52" width="8" height="8" fill="#724D50"/>
<rect x="72" y="52" width="8" height="8" fill="#724D50"/>
<rect x="88" y="52" width="8" height="8" fill="#724D50"/>
<rect x="96" y="60" width="8" height="8" fill="#724D50"/>
<rect x="104" y="68" width="8" height="8" fill="#724D50"/>
<rect x="21" y="77" width="15" height="8" fill="#724D50"/>
<rect x="51" y="72" width="8" height="8" fill="#724D50"/>
<rect x="104" y="76" width="8" height="8" fill="#724D50"/>
<rect x="112" y="76" width="8" height="8" fill="#724D50"/>
<rect x="120" y="68" width="8" height="8" fill="#724D50"/>
<rect x="128" y="60" width="8" height="8" fill="#724D50"/>
<rect x="136" y="60" width="8" height="8" fill="#724D50"/>
<rect x="132" y="76" width="8" height="8" fill="#724D50"/>
<rect x="136" y="68" width="8" height="8" fill="#724D50"/>
<rect x="124" y="84" width="8" height="8" fill="#724D50"/>
<rect x="112" y="92" width="16" height="8" fill="#724D50"/>
<rect x="106" y="100" width="8" height="8" fill="#724D50"/>
<rect x="71.1111" y="102" width="8.88889" height="8.88889" transform="rotate(-180 71.1111 102)" fill="#724D50"/>
<rect x="71.1111" y="93.1111" width="8.88889" height="8.88889" transform="rotate(-180 71.1111 93.1111)" fill="#724D50"/>
<rect x="80" y="93.1111" width="8.88889" height="8.88889" transform="rotate(-180 80 93.1111)" fill="white"/>
<rect x="80" y="102" width="8.88889" height="8.88889" transform="rotate(-180 80 102)" fill="#724D50"/>
<rect x="17.7778" y="101.778" width="8.88889" height="8.88889" transform="rotate(-180 17.7778 101.778)" fill="#724D50"/>
<rect x="17.7778" y="92.8889" width="8.88889" height="8.88889" transform="rotate(-180 17.7778 92.8889)" fill="white"/>
<rect x="8.88892" y="101.778" width="8.88889" height="8.88889" transform="rotate(-180 8.88892 101.778)" fill="#724D50"/>
<rect x="8.88892" y="92.8889" width="8.88889" height="8.88889" transform="rotate(-180 8.88892 92.8889)" fill="#724D50"/>
<rect x="24" y="85" width="8" height="7" fill="#724D50"/>
<rect x="24" y="92" width="8" height="8" fill="#724D50"/>
<rect x="28" y="100" width="8" height="8" fill="#724D50"/>
<rect x="104" y="92" width="10" height="8" fill="#724D50"/>
<rect x="100" y="100" width="8" height="8" fill="#724D50"/>
<rect x="100" y="108" width="8" height="8" fill="#724D50"/>
<rect x="100" y="116" width="8" height="8" fill="#724D50"/>
<rect x="92" y="116" width="8" height="8" fill="#724D50"/>
<rect x="92" y="116" width="8" height="8" fill="#724D50"/>
<rect x="76" y="116" width="8" height="8" fill="#724D50"/>
<rect x="68" y="116" width="8" height="8" fill="#724D50"/>
<rect x="52" y="116" width="8" height="8" fill="#724D50"/>
<rect x="44" y="116" width="8" height="8" fill="#724D50"/>
<rect x="44" y="124" width="56" height="6" fill="#724D50"/>
<rect x="68" y="116" width="8" height="8" fill="#724D50"/>
<rect x="36" y="100" width="8" height="8" fill="#724D50"/>
<rect x="44" y="108" width="8" height="8" fill="#724D50"/>
<rect x="36" y="108" width="8" height="8" fill="#724D50"/>
<rect y="56" width="8" height="8" fill="#724D50"/>
<rect x="5" y="64" width="11" height="8" fill="#724D50"/>
<rect x="30" y="24" width="10" height="8" fill="#724D50"/>
<rect x="40" y="24" width="8" height="8" fill="#724D50"/>
<rect x="56.0601" y="32" width="8" height="8" fill="#724D50"/>
<rect x="64" y="32" width="8" height="8" fill="#724D50"/>
<rect x="48" y="40" width="8" height="8" fill="#724D50"/>
<rect x="56" y="40" width="8" height="8" fill="#724D50"/>
<rect x="8" y="40" width="8" height="8" fill="#724D50"/>
<rect x="16" y="40" width="8" height="8" fill="#724D50"/>
<rect x="24" y="56" width="8" height="8" fill="#724D50"/>
<rect x="40" y="56" width="8" height="8" fill="#724D50"/>
<rect x="32" y="48" width="8" height="8" fill="#724D50"/>
<rect x="22" y="24" width="8" height="8" fill="#724D50"/>
<rect x="13" y="72" width="8" height="8" fill="#724D50"/>
</svg>
