<svg width="154" height="130" viewBox="0 0 154 130" fill="none" xmlns="http://www.w3.org/2000/svg">
<rect x="54" y="116" width="47" height="8" fill="white"/>
<rect x="62" y="108" width="35" height="8" fill="white"/>
<path fill-rule="evenodd" clip-rule="evenodd" d="M43.2429 14.6655L60.969 11.5375L63.0543 23.355L65.0239 23.0074L70.1399 52H98V58H106V74H122V64H130V59H138V69H134V76H130V86H106V108L98 108L92 108L54 108V100H44V97H32V77.5763L29.0497 78.0969L26.9644 66.2795L14.1622 68.5386L5.82104 21.2688L19.608 18.836L21.6933 30.6534L45.3282 26.4829L43.2429 14.6655Z" fill="#DFA46D"/>
<rect x="19.9551" y="55.3309" width="40" height="21" transform="rotate(-10.0073 19.9551 55.3309)" fill="white"/>
<path d="M130 60L133.5 54H141V76H126V65L130 60Z" fill="white"/>
<rect x="7.67493" y="8.75629" width="8" height="8" transform="rotate(-10.0073 7.67493 8.75629)" fill="#724D50"/>
<rect x="16.9434" y="15.2444" width="8" height="8" transform="rotate(-10.0073 16.9434 15.2444)" fill="#724D50"/>
<rect x="9.06506" y="16.6346" width="8" height="8" transform="rotate(-10.0073 9.06506 16.6346)" fill="white"/>
<rect x="1.18677" y="18.0248" width="8" height="8" transform="rotate(-10.0073 1.18677 18.0248)" fill="#724D50"/>
<rect x="47.0663" y="1.80536" width="8" height="8" transform="rotate(-10.0073 47.0663 1.80536)" fill="#724D50"/>
<rect x="56.3347" y="8.29346" width="8" height="8" transform="rotate(-10.0073 56.3347 8.29346)" fill="#724D50"/>
<rect x="48.4565" y="9.68365" width="8" height="8" transform="rotate(-10.0073 48.4565 9.68365)" fill="white"/>
<rect x="57.725" y="16.1718" width="8" height="8" transform="rotate(-10.0073 57.725 16.1718)" fill="#724D50"/>
<rect x="2.5769" y="25.9031" width="8" height="8" transform="rotate(-10.0073 2.5769 25.9031)" fill="#724D50"/>
<rect x="40.5782" y="11.0739" width="8" height="8" transform="rotate(-10.0073 40.5782 11.0739)" fill="#724D50"/>
<rect x="60.7367" y="56.2583" width="8" height="8" transform="rotate(-10.0073 60.7367 56.2583)" fill="#724D50"/>
<rect x="68.615" y="54.8681" width="8" height="8" transform="rotate(-10.0073 68.615 54.8681)" fill="#724D50"/>
<rect x="7.90625" y="33.0862" width="8" height="8" transform="rotate(-10.0073 7.90625 33.0862)" fill="#724D50"/>
<rect x="0.0279541" y="34.4764" width="8" height="8" transform="rotate(-10.0073 0.0279541 34.4764)" fill="#724D50"/>
<rect x="64.4445" y="31.2332" width="8" height="8" transform="rotate(-10.0073 64.4445 31.2332)" fill="#724D50"/>
<rect x="1.41821" y="42.3547" width="8" height="8" transform="rotate(-10.0073 1.41821 42.3547)" fill="#724D50"/>
<rect x="65.8347" y="39.1115" width="8" height="8" transform="rotate(-10.0073 65.8347 39.1115)" fill="#724D50"/>
<rect x="2.80835" y="50.233" width="8" height="8" transform="rotate(-10.0073 2.80835 50.233)" fill="#724D50"/>
<rect x="67.2249" y="46.9898" width="8" height="8" transform="rotate(-10.0073 67.2249 46.9898)" fill="#724D50"/>
<rect x="82" y="44" width="8" height="8" fill="#724D50"/>
<rect x="74" y="44" width="8" height="8" fill="#724D50"/>
<rect x="90" y="44" width="8" height="8" fill="#724D50"/>
<rect x="98" y="52" width="8" height="8" fill="#724D50"/>
<rect x="106" y="60" width="8" height="8" fill="#724D50"/>
<rect x="28.5283" y="75.1426" width="8" height="8" transform="rotate(-10.0073 28.5283 75.1426)" fill="#724D50"/>
<rect x="36.4066" y="73.7524" width="26.9681" height="8" transform="rotate(-10.0073 36.4066 73.7524)" fill="#724D50"/>
<rect x="58.1877" y="64.8317" width="8" height="8" transform="rotate(-10.0073 58.1877 64.8317)" fill="#724D50"/>
<rect x="106" y="68" width="8" height="8" fill="#724D50"/>
<rect x="114" y="68" width="8" height="8" fill="#724D50"/>
<rect x="122" y="60" width="8" height="8" fill="#724D50"/>
<rect x="130" y="52" width="8" height="8" fill="#724D50"/>
<rect x="138" y="52" width="8" height="8" fill="#724D50"/>
<rect x="134" y="68" width="8" height="8" fill="#724D50"/>
<rect x="138" y="60" width="8" height="8" fill="#724D50"/>
<rect x="126" y="76" width="8" height="8" fill="#724D50"/>
<rect x="114" y="84" width="16" height="8" fill="#724D50"/>
<rect x="108" y="92" width="8" height="8" fill="#724D50"/>
<rect width="8.88889" height="8.88889" transform="matrix(1 -8.74228e-08 -8.74228e-08 -1 66.1503 100)" fill="#724D50"/>
<rect width="8.88889" height="8.88889" transform="matrix(1 -8.74228e-08 -8.74228e-08 -1 66.1503 91.1111)" fill="#724D50"/>
<rect width="8.88889" height="8.88889" transform="matrix(1 -8.74228e-08 -8.74228e-08 -1 57.2614 91.1111)" fill="white"/>
<rect width="8.88889" height="8.88889" transform="matrix(1 -8.74228e-08 -8.74228e-08 -1 57.2614 100)" fill="#724D50"/>
<rect x="20.3547" y="99.6979" width="8.88889" height="8.88889" transform="rotate(-180 20.3547 99.6979)" fill="#724D50"/>
<rect x="20.3547" y="90.809" width="8.88889" height="8.88889" transform="rotate(-180 20.3547 90.809)" fill="white"/>
<rect x="11.4658" y="99.6979" width="8.88889" height="8.88889" transform="rotate(-180 11.4658 99.6979)" fill="#724D50"/>
<rect x="11.4658" y="90.809" width="8.88889" height="8.88889" transform="rotate(-180 11.4658 90.809)" fill="#724D50"/>
<rect x="26" y="76.0114" width="8" height="7.98857" fill="#724D50"/>
<rect x="26" y="84" width="8" height="8" fill="#724D50"/>
<rect x="30" y="92" width="8" height="8" fill="#724D50"/>
<rect x="106" y="84" width="10" height="8" fill="#724D50"/>
<rect x="102" y="92" width="8" height="8" fill="#724D50"/>
<rect x="102" y="100" width="8" height="8" fill="#724D50"/>
<rect x="102" y="108" width="8" height="8" fill="#724D50"/>
<rect x="94" y="108" width="8" height="8" fill="#724D50"/>
<rect x="94" y="116" width="8" height="8" fill="#724D50"/>
<rect x="78" y="108" width="8" height="8" fill="#724D50"/>
<rect x="70" y="116" width="8" height="8" fill="#724D50"/>
<rect x="54" y="108" width="8" height="8" fill="#724D50"/>
<rect x="46" y="116" width="8" height="8" fill="#724D50"/>
<rect x="46" y="124" width="56" height="6" fill="#724D50"/>
<rect x="70" y="108" width="8" height="8" fill="#724D50"/>
<rect x="38" y="92" width="8" height="8" fill="#724D50"/>
<rect x="46" y="100" width="8" height="8" fill="#724D50"/>
<rect x="38" y="100" width="8" height="8" fill="#724D50"/>
<rect x="4.19861" y="58.1113" width="8" height="8" transform="rotate(-10.0073 4.19861 58.1113)" fill="#724D50"/>
<rect x="10.5127" y="65.1207" width="11" height="8" transform="rotate(-10.0073 10.5127 65.1207)" fill="#724D50"/>
<rect x="28.1814" y="21.3849" width="10" height="8" transform="rotate(-10.0073 28.1814 21.3849)" fill="#724D50"/>
<rect x="38.0293" y="19.6472" width="8" height="8" transform="rotate(-10.0073 38.0293 19.6472)" fill="#724D50"/>
<rect x="55.2351" y="24.7347" width="8" height="8" transform="rotate(-10.0073 55.2351 24.7347)" fill="#724D50"/>
<rect x="63.0543" y="23.355" width="8" height="8" transform="rotate(-10.0073 63.0543 23.355)" fill="#724D50"/>
<rect x="49.3831" y="37.9528" width="8" height="4" transform="rotate(-10.0073 49.3831 37.9528)" fill="#724D50"/>
<rect x="57.2612" y="36.5626" width="8" height="4" transform="rotate(-10.0073 57.2612 36.5626)" fill="#724D50"/>
<rect x="9.99158" y="44.9037" width="8" height="4" transform="rotate(-10.0073 9.99158 44.9037)" fill="#724D50"/>
<rect x="17.8699" y="43.5135" width="8" height="4" transform="rotate(-10.0073 17.8699 43.5135)" fill="#724D50"/>
<rect x="27.8334" y="53.9407" width="8" height="8" transform="rotate(-10.0073 27.8334 53.9407)" fill="#724D50"/>
<rect x="43.59" y="51.1604" width="8" height="8" transform="rotate(-10.0073 43.59 51.1604)" fill="#724D50"/>
<rect x="34.3215" y="44.6722" width="8" height="8" transform="rotate(-10.0073 34.3215 44.6722)" fill="#724D50"/>
<rect x="20.3031" y="22.7751" width="8" height="8" transform="rotate(-10.0073 20.3031 22.7751)" fill="#724D50"/>
<rect x="19.7811" y="71.6088" width="8" height="8" transform="rotate(-10.0073 19.7811 71.6088)" fill="#724D50"/>
</svg>
