<svg width="152" height="130" viewBox="0 0 152 130" fill="none" xmlns="http://www.w3.org/2000/svg">
<rect x="52" y="124" width="47" height="6" fill="white"/>
<rect x="60" y="116" width="35" height="8" fill="white"/>
<path fill-rule="evenodd" clip-rule="evenodd" d="M8 29H22V41H46V29H64V41H66V60H96V66H104V82H120V72H128V67H136V77H132V84H128V94H104V116H96H90H52V108H42V105H30V89H21V77H8V29Z" fill="#DFA46D"/>
<rect x="16" y="65" width="40" height="21" fill="white"/>
<path d="M128 68L131.5 62H139V84H124V73L128 68Z" fill="white"/>
<rect x="12" y="17" width="8" height="8" fill="#724D50"/>
<rect x="20" y="25" width="8" height="8" fill="#724D50"/>
<rect x="12" y="25" width="8" height="8" fill="white"/>
<rect x="4" y="25" width="8" height="8" fill="#724D50"/>
<rect x="52" y="17" width="8" height="8" fill="#724D50"/>
<rect x="60" y="25" width="8" height="8" fill="#724D50"/>
<rect x="52" y="25" width="8" height="8" fill="white"/>
<rect x="60" y="33" width="8" height="8" fill="#724D50"/>
<rect x="4" y="33" width="8" height="8" fill="#724D50"/>
<rect x="44" y="25" width="8" height="8" fill="#724D50"/>
<rect x="56" y="73" width="8" height="8" fill="#724D50"/>
<rect x="64" y="73" width="8" height="8" fill="#724D50"/>
<rect x="8" y="41" width="8" height="8" fill="#724D50"/>
<rect y="41" width="8" height="8" fill="#724D50"/>
<rect x="64" y="49" width="8" height="8" fill="#724D50"/>
<rect y="49" width="8" height="8" fill="#724D50"/>
<rect x="64" y="57" width="8" height="8" fill="#724D50"/>
<rect y="57" width="8" height="8" fill="#724D50"/>
<rect y="56" width="8" height="8" fill="#724D50"/>
<rect x="64" y="56" width="8" height="8" fill="#724D50"/>
<rect x="64" y="65" width="8" height="8" fill="#724D50"/>
<rect x="80" y="52" width="8" height="8" fill="#724D50"/>
<rect x="72" y="52" width="8" height="8" fill="#724D50"/>
<rect x="88" y="52" width="8" height="8" fill="#724D50"/>
<rect x="96" y="60" width="8" height="8" fill="#724D50"/>
<rect x="104" y="68" width="8" height="8" fill="#724D50"/>
<rect x="16" y="86" width="12" height="8" fill="#724D50"/>
<rect x="28" y="86" width="26" height="8" fill="#724D50"/>
<rect x="52" y="81" width="8" height="8" fill="#724D50"/>
<rect x="104" y="76" width="8" height="8" fill="#724D50"/>
<rect x="112" y="76" width="8" height="8" fill="#724D50"/>
<rect x="120" y="68" width="8" height="8" fill="#724D50"/>
<rect x="128" y="60" width="8" height="8" fill="#724D50"/>
<rect x="136" y="60" width="8" height="8" fill="#724D50"/>
<rect x="132" y="76" width="8" height="8" fill="#724D50"/>
<rect x="136" y="68" width="8" height="8" fill="#724D50"/>
<rect x="124" y="84" width="8" height="8" fill="#724D50"/>
<rect x="112" y="92" width="16" height="8" fill="#724D50"/>
<rect x="106" y="100" width="8" height="8" fill="#724D50"/>
<rect x="22" y="88" width="8" height="13" fill="#724D50"/>
<rect x="26" y="100" width="10" height="8" fill="#724D50"/>
<rect x="104" y="92" width="10" height="8" fill="#724D50"/>
<rect x="100" y="100" width="8" height="8" fill="#724D50"/>
<rect x="100" y="108" width="8" height="8" fill="#724D50"/>
<rect x="100" y="116" width="8" height="8" fill="#724D50"/>
<rect x="92" y="116" width="8" height="8" fill="#724D50"/>
<rect x="92" y="116" width="8" height="8" fill="#724D50"/>
<rect x="76" y="116" width="8" height="8" fill="#724D50"/>
<rect x="68" y="116" width="8" height="8" fill="#724D50"/>
<rect x="52" y="116" width="8" height="8" fill="#724D50"/>
<rect x="44" y="116" width="8" height="8" fill="#724D50"/>
<rect x="44" y="124" width="56" height="6" fill="#724D50"/>
<rect x="68" y="116" width="8" height="8" fill="#724D50"/>
<rect x="36" y="100" width="8" height="8" fill="#724D50"/>
<rect x="44" y="108" width="8" height="8" fill="#724D50"/>
<rect x="36" y="108" width="8" height="8" fill="#724D50"/>
<rect y="65" width="8" height="8" fill="#724D50"/>
<rect x="5" y="73" width="11" height="8" fill="#724D50"/>
<rect x="30" y="33" width="10" height="8" fill="#724D50"/>
<rect x="40" y="33" width="8" height="8" fill="#724D50"/>
<rect x="56.0601" y="41" width="8" height="8" fill="#724D50"/>
<rect x="64" y="41" width="8" height="8" fill="#724D50"/>
<rect x="48" y="54" width="8" height="5" fill="#724D50"/>
<rect x="56" y="54" width="8" height="5" fill="#724D50"/>
<rect x="8" y="54" width="8" height="5" fill="#724D50"/>
<rect x="16" y="54" width="8" height="5" fill="#724D50"/>
<rect x="24" y="65" width="8" height="5" fill="#724D50"/>
<rect x="40" y="65" width="8" height="5" fill="#724D50"/>
<rect x="32" y="57" width="8" height="8" fill="#724D50"/>
<rect x="22" y="33" width="8" height="8" fill="#724D50"/>
<rect x="12" y="81" width="8" height="8" fill="#724D50"/>
<path fill-rule="evenodd" clip-rule="evenodd" d="M103 0H117V3H115V6H112V3H103V0ZM109 9V6H112V9H109ZM109 12V9H106V12H103V15H117V12H109Z" fill="black"/>
<path fill-rule="evenodd" clip-rule="evenodd" d="M80 15H99V19.0714L96.2857 19.0714V23.1429H92.2143V19.0714L80 19.0714V15ZM88.1429 27.2143V23.1429H92.2143L92.2143 27.2143H88.1429ZM88.1429 31.2857V27.2143H84.0714V31.2857L80 31.2857V35.3571H99V31.2857L88.1429 31.2857Z" fill="black"/>
</svg>
