<svg width="41" height="40" viewBox="0 0 41 40" fill="none" xmlns="http://www.w3.org/2000/svg">
<rect x="16.71" y="16" width="8" height="9" fill="black"/>
<rect x="19.71" y="10" width="2" height="6" fill="black"/>
<rect x="16.71" y="8" width="8" height="4" fill="black"/>
<rect x="14.71" y="17" width="12" height="6" fill="black"/>
<rect x="13.71" y="17" width="13" height="1" fill="black"/>
<rect x="13.71" y="9" width="13" height="5" fill="black"/>
<rect x="11.71" y="11" width="2" height="1" fill="black"/>
<rect x="26.71" y="11" width="3" height="1" fill="black"/>
<rect x="26.71" y="15" width="3" height="2" fill="black"/>
<rect x="11.71" y="15" width="2" height="2" fill="black"/>
<rect x="14.71" y="25" width="2" height="2" fill="black"/>
<rect x="24.71" y="25" width="2" height="2" fill="black"/>
<rect x="16.71" y="32" width="8" height="2" fill="black"/>
<rect x="24.71" y="29" width="2" height="3" fill="black"/>
<rect x="25.71" y="27" width="3" height="3" fill="black"/>
<rect x="27.71" y="26" width="2" height="3" fill="black"/>
<rect x="11.71" y="26" width="2" height="3" fill="black"/>
<rect x="9.70996" y="23" width="3" height="5" fill="black"/>
<rect x="7.70996" y="17" width="2" height="7" fill="black"/>
<rect x="9.70996" y="14" width="21" height="6" fill="black"/>
<rect x="11.71" y="12" width="1" height="6" fill="black"/>
<rect x="27.71" y="23" width="4" height="5" fill="black"/>
<rect x="31.71" y="17" width="2" height="7" fill="black"/>
<rect x="29.71" y="14" width="2" height="6" fill="black"/>
<rect x="28.71" y="12" width="1" height="6" fill="black"/>
<rect x="12.71" y="27" width="3" height="3" fill="black"/>
<rect x="13.71" y="29" width="3" height="3" fill="black"/>
<rect x="14.5921" y="10.2944" width="3.05882" height="6.11765" fill="white"/>
<rect x="12.2981" y="11.8238" width="7.64706" height="3.82353" fill="white"/>
<rect x="14.5921" y="12.5887" width="5.35294" height="3.82353" fill="white"/>
<rect x="14.5921" y="16.4118" width="2.29412" height="0.764706" fill="white"/>
<rect width="3.05882" height="6.11765" transform="matrix(-1 0 0 1 26.8278 10.2944)" fill="white"/>
<rect width="7.64706" height="3.82353" transform="matrix(-1 0 0 1 29.1218 11.8238)" fill="white"/>
<rect width="5.35294" height="3.82353" transform="matrix(-1 0 0 1 26.8278 12.5887)" fill="white"/>
<rect width="2.29412" height="0.764706" transform="matrix(-1 0 0 1 26.8278 16.4118)" fill="white"/>
<rect x="12.2979" y="17.1763" width="2.29412" height="8.41177" fill="white"/>
<rect x="10.4956" y="19.1427" width="4.64286" height="5.57143" fill="white"/>
<rect x="13.2814" y="22.857" width="1.85714" height="3.71429" fill="white"/>
<rect x="13.8275" y="22.5291" width="3.05882" height="2.29412" fill="white"/>
<rect x="9.23926" y="20.2349" width="3.05882" height="3.05882" fill="white"/>
<rect width="2.29412" height="8.41177" transform="matrix(-1 0 0 1 29.122 17.1763)" fill="white"/>
<rect width="4.64286" height="5.57143" transform="matrix(-1 0 0 1 30.9243 19.1427)" fill="white"/>
<rect width="1.85714" height="3.71429" transform="matrix(-1 0 0 1 28.1386 22.857)" fill="white"/>
<rect width="3.05882" height="2.29412" transform="matrix(-1 0 0 1 27.5924 22.5291)" fill="white"/>
<rect width="3.05882" height="3.05882" transform="matrix(-1 0 0 1 32.1807 20.2349)" fill="white"/>
<rect x="16.71" y="25" width="8" height="7" fill="white"/>
<rect x="15.71" y="27" width="10" height="2" fill="white"/>
</svg>
