<svg width="41" height="40" viewBox="0 0 41 40" fill="none" xmlns="http://www.w3.org/2000/svg">
<rect x="21.7933" y="16.1245" width="2.16667" height="7.58336" transform="rotate(-90 21.7933 16.1245)" fill="#724D50"/>
<rect x="29.3768" y="18.2916" width="2.16667" height="2.16667" transform="rotate(-90 29.3768 18.2916)" fill="#724D50"/>
<rect x="29.3768" y="31.292" width="2.16667" height="2.16667" transform="rotate(-90 29.3768 31.292)" fill="#724D50"/>
<rect x="27.21" y="33.4581" width="2.16667" height="2.16667" transform="rotate(-90 27.21 33.4581)" fill="#724D50"/>
<rect x="18.5431" y="33.4581" width="2.16667" height="4.33335" transform="rotate(-90 18.5431 33.4581)" fill="#724D50"/>
<rect x="22.8768" y="35.6247" width="2.16667" height="4.33335" transform="rotate(-90 22.8768 35.6247)" fill="#724D50"/>
<rect x="9.87679" y="18.2916" width="2.16667" height="2.16667" transform="rotate(-90 9.87679 18.2916)" fill="#724D50"/>
<rect x="9.87679" y="31.292" width="2.16667" height="2.16667" transform="rotate(-90 9.87679 31.292)" fill="#724D50"/>
<rect x="12.0431" y="33.4581" width="2.16667" height="2.16667" transform="rotate(-90 12.0431 33.4581)" fill="#724D50"/>
<rect x="14.21" y="35.6247" width="2.16667" height="4.33335" transform="rotate(-90 14.21 35.6247)" fill="#724D50"/>
<rect x="7.70996" y="29.1245" width="10.8334" height="2.16667" transform="rotate(-90 7.70996 29.1245)" fill="#724D50"/>
<rect x="31.5431" y="29.1245" width="10.8334" height="2.16667" transform="rotate(-90 31.5431 29.1245)" fill="#724D50"/>
<rect x="12.0431" y="16.1245" width="2.16667" height="7.58336" transform="rotate(-90 12.0431 16.1245)" fill="#724D50"/>
<rect x="29.377" y="4.20804" width="2.16667" height="4.33335" fill="#724D50"/>
<rect x="23.96" y="6.37415" width="2.16667" height="5.41669" transform="rotate(-90 23.96 6.37415)" fill="#724D50"/>
<rect x="21.7932" y="8.5417" width="2.16667" height="2.16667" transform="rotate(-90 21.7932 8.5417)" fill="#724D50"/>
<rect x="19.6269" y="17.208" width="8.6667" height="2.16667" transform="rotate(-90 19.6269 17.208)" fill="#724D50"/>
<rect x="27.2102" y="10.7078" width="2.16667" height="2.16667" transform="rotate(-90 27.2102 10.7078)" fill="#724D50"/>
<rect x="21.7932" y="12.8744" width="2.16667" height="5.41669" transform="rotate(-90 21.7932 12.8744)" fill="#724D50"/>
<rect x="21.7932" y="10.7078" width="2.16667" height="5.41669" transform="rotate(-90 21.7932 10.7078)" fill="#BFE449"/>
<rect x="23.96" y="8.5417" width="2.16667" height="5.41669" transform="rotate(-90 23.96 8.5417)" fill="#BFE449"/>
<rect x="21.7933" y="16.1245" width="7.58336" height="15.1667" fill="#EA394B"/>
<rect x="12.0431" y="16.1245" width="7.58336" height="15.1667" fill="#EA394B"/>
<rect x="14.21" y="31.292" width="4.33335" height="2.16667" fill="#EA394B"/>
<rect x="18.5431" y="29.1245" width="4.33335" height="2.16667" fill="#EA394B"/>
<rect x="22.8768" y="31.292" width="4.33335" height="2.16667" fill="#EA394B"/>
<rect x="31.5431" y="18.2916" width="10.8334" height="21.6667" transform="rotate(90 31.5431 18.2916)" fill="#EA394B"/>
<rect x="19.6269" y="19.3744" width="2.16667" height="2.16667" transform="rotate(-90 19.6269 19.3744)" fill="#724D50"/>
<rect x="21.7933" y="18.2916" width="2.16667" height="2.16667" transform="rotate(-90 21.7933 18.2916)" fill="#724D50"/>
<rect x="17.4601" y="18.2916" width="2.16667" height="2.16667" transform="rotate(-90 17.4601 18.2916)" fill="#724D50"/>
</svg>
