<svg width="41" height="40" viewBox="0 0 41 40" fill="none" xmlns="http://www.w3.org/2000/svg">
<rect x="11.085" y="11.25" width="19.25" height="14" fill="white"/>
<rect x="13.71" y="9.5" width="14.875" height="1.75" fill="white"/>
<rect x="15.46" y="7.75" width="11.375" height="1.75" fill="white"/>
<rect x="15.46" y="27" width="11.375" height="1.75" fill="white"/>
<rect x="28.585" y="27" width="14.875" height="1.75" transform="rotate(180 28.585 27)" fill="white"/>
<rect width="1.75" height="7" transform="matrix(-1 0 0 1 11.085 14.75)" fill="white"/>
<rect width="1.75" height="7" transform="matrix(-1 0 0 1 32.085 14.75)" fill="white"/>
<rect x="12.2516" y="15.625" width="8.28089" height="1.75" fill="#724D50"/>
<rect x="12.2516" y="22.4778" width="8.28089" height="1.75" fill="#724D50"/>
<rect x="17.21" y="17.375" width="1.75" height="1.75" fill="#724D50"/>
<rect x="26.835" y="7.75" width="1.75" height="1.75" fill="#724D50"/>
<rect x="28.585" y="9.5" width="1.75" height="1.75" fill="#724D50"/>
<rect x="30.335" y="11.25" width="1.75" height="1.75" fill="#724D50"/>
<rect x="30.335" y="13" width="1.75" height="1.75" fill="#724D50"/>
<rect x="30.335" y="21.75" width="1.75" height="1.75" fill="#724D50"/>
<rect x="30.335" y="23.5" width="1.75" height="1.75" fill="#724D50"/>
<rect x="28.585" y="25.25" width="1.75" height="1.75" fill="#724D50"/>
<rect x="26.835" y="27" width="1.75" height="1.75" fill="#724D50"/>
<rect x="13.71" y="27" width="1.75" height="1.75" fill="#724D50"/>
<rect x="9.33496" y="27" width="5.25" height="4.375" fill="#724D50"/>
<rect x="7.58496" y="29.625" width="5.25" height="4.375" fill="#724D50"/>
<rect x="10.21" y="25.25" width="3.5" height="1.75" fill="#724D50"/>
<rect x="9.33496" y="21.75" width="1.75" height="3.5" fill="#724D50"/>
<rect x="7.58496" y="14.75" width="1.75" height="7" fill="#724D50"/>
<rect x="9.33496" y="11.25" width="1.75" height="3.5" fill="#724D50"/>
<rect x="11.085" y="9.5" width="2.625" height="1.75" fill="#724D50"/>
<rect x="13.71" y="7.75" width="1.75" height="1.75" fill="#724D50"/>
<rect x="15.46" y="6" width="11.375" height="1.75" fill="#724D50"/>
<rect x="15.46" y="28.75" width="11.375" height="1.75" fill="#724D50"/>
<rect x="32.085" y="14.75" width="1.75" height="1.75" fill="#724D50"/>
<rect x="32.085" y="16.5" width="1.75" height="1.75" fill="#724D50"/>
<rect x="32.085" y="18.25" width="1.75" height="1.75" fill="#724D50"/>
<rect x="32.085" y="20" width="1.75" height="1.75" fill="#724D50"/>
<rect x="15.46" y="19.125" width="1.75" height="1.75" fill="#724D50"/>
<rect x="13.71" y="20.875" width="1.75" height="1.75" fill="#724D50"/>
<rect x="20.71" y="12.125" width="8.28089" height="1.75" fill="#724D50"/>
<rect x="20.71" y="18.9778" width="8.28089" height="1.75" fill="#724D50"/>
<rect x="25.6683" y="13.875" width="1.75" height="1.75" fill="#724D50"/>
<rect x="23.9183" y="15.625" width="1.75" height="1.75" fill="#724D50"/>
<rect x="22.1683" y="17.375" width="1.75" height="1.75" fill="#724D50"/>
<rect x="10.21" y="27.875" width="3.5" height="1.75" fill="white"/>
<rect x="8.45996" y="31.375" width="2.625" height="0.875" fill="white"/>
<rect x="11.085" y="27" width="1.75" height="3.5" fill="white"/>
<rect x="9.33496" y="30.5" width="0.875" height="2.625" fill="white"/>
</svg>
